<svg width="162" height="24" viewBox="0 0 162 24" fill="none" xmlns="http://www.w3.org/2000/svg">
<path d="M30.0311 5.93913H33.0573V7.32482C33.5356 6.77947 34.1239 6.34153 34.7835 6.03979C35.4352 5.75249 36.1403 5.60651 36.8524 5.61145C37.5712 5.60245 38.2781 5.79458 38.8935 6.16615C39.5219 6.55964 40.0284 7.12027 40.3562 7.78529C40.8027 7.10733 41.4106 6.55094 42.1253 6.16615C42.8318 5.79535 43.619 5.60481 44.4169 5.61145C45.2175 5.59784 46.0055 5.81173 46.6893 6.22826C47.3077 6.59128 47.798 7.13766 48.0921 7.79171C48.3777 8.43422 48.5204 9.47938 48.5204 10.9272V17.9905H45.4621V11.8802C45.4621 10.5138 45.2922 9.58575 44.9524 9.09601C44.7798 8.85536 44.549 8.66249 44.2815 8.53549C44.0141 8.40849 43.7187 8.35154 43.4232 8.36997C42.9235 8.36424 42.4354 8.5197 42.0311 8.81331C41.6118 9.12491 41.2949 9.55439 41.1208 10.0469C40.9224 10.5681 40.8224 11.4048 40.821 12.557V17.9905H37.7691V12.1587C37.7691 11.0792 37.6891 10.2939 37.5292 9.80278C37.4077 9.38023 37.1577 9.00598 36.8139 8.73192C36.4774 8.49087 36.0711 8.36674 35.6573 8.37854C35.1634 8.37575 34.6819 8.53277 34.2845 8.82616C33.86 9.14583 33.5395 9.58401 33.3636 10.0855C33.1608 10.6252 33.0587 11.4747 33.0573 12.6341V17.9905H30.0311V5.93913Z" fill="black"/>
<path d="M52.5725 0.972371C52.8278 0.969392 53.081 1.01922 53.3162 1.11873C53.5513 1.21824 53.7633 1.36529 53.9389 1.55063C54.1233 1.73273 54.2687 1.95043 54.3663 2.19049C54.4638 2.43055 54.5115 2.68795 54.5065 2.94703C54.5111 3.20312 54.4636 3.45748 54.3668 3.69461C54.2699 3.93173 54.1258 4.14666 53.9432 4.32629C53.7704 4.50952 53.5614 4.65493 53.3296 4.75336C53.0977 4.85178 52.848 4.90107 52.5961 4.89812C52.3387 4.90191 52.0833 4.85207 51.8462 4.75178C51.6091 4.65148 51.3955 4.50293 51.219 4.31558C51.0338 4.13039 50.8879 3.90976 50.7901 3.66688C50.6922 3.424 50.6443 3.16387 50.6493 2.90205C50.6456 2.64831 50.6936 2.39647 50.7904 2.16191C50.8873 1.92735 51.0309 1.71498 51.2125 1.53778C51.3885 1.35556 51.6 1.21137 51.8339 1.11412C52.0679 1.01687 52.3192 0.968623 52.5725 0.972371ZM51.0605 5.939H54.0867V17.9904H51.0605V5.939Z" fill="black"/>
<path d="M55.7487 5.93896H59.2633L61.647 9.22649L64.0179 5.93896H67.4639L63.3711 11.6145L68.0079 17.9904H64.4955L61.6256 14.0346L58.7728 17.9904H55.3161L59.8951 11.6466L55.7487 5.93896Z" fill="black"/>
<path d="M69.5499 5.93896H71.1047V11.5652C71.1047 12.9402 71.1761 13.8861 71.3189 14.403C71.5259 15.122 71.9813 15.7443 72.6039 16.1592C73.2653 16.5985 74.0462 16.8229 74.8399 16.8017C75.6215 16.8262 76.3915 16.6077 77.0437 16.1763C77.6309 15.7808 78.0701 15.2015 78.2923 14.5294C78.4494 14.0653 78.5272 13.0787 78.5258 11.5695V5.93896H80.0999V11.8587C80.0999 13.5192 79.9072 14.7721 79.5217 15.6174C79.1506 16.4386 78.5399 17.1284 77.7697 17.5963C76.9902 18.0718 76.0128 18.3095 74.8377 18.3095C73.6627 18.3095 72.6818 18.0718 71.895 17.5963C71.116 17.1283 70.5005 16.4312 70.1324 15.6002C69.7455 14.7435 69.5513 13.4585 69.5499 11.7451V5.93896Z" fill="black"/>
<path d="M83.5502 5.93909H85.103V8.10008C85.6485 7.33941 86.353 6.70653 87.1676 6.24536C87.9221 5.83398 88.769 5.62169 89.6284 5.62854C90.4792 5.61415 91.315 5.85348 92.0293 6.31603C92.7188 6.76355 93.2577 7.40836 93.5756 8.16647C93.9083 8.9432 94.0746 10.1518 94.0746 11.7924V17.9905H92.5219V12.2464C92.5219 10.8586 92.464 9.9291 92.3484 9.4622C92.2255 8.75908 91.8593 8.12153 91.3139 7.66103C90.7338 7.23866 90.0258 7.02915 89.3093 7.06777C88.3833 7.06269 87.4868 7.39371 86.7864 7.99942C86.0619 8.58988 85.5467 9.3979 85.3171 10.3039C85.1744 10.9036 85.103 11.9973 85.103 13.585V17.9905H83.5502V5.93909Z" fill="black"/>
<path d="M97.9318 0.972289C98.1006 0.969931 98.268 1.00216 98.4238 1.06699C98.5796 1.13182 98.7205 1.22787 98.8378 1.34923C98.9588 1.46748 99.0545 1.6092 99.119 1.76571C99.1834 1.92221 99.2153 2.09022 99.2126 2.25946C99.2146 2.4267 99.1825 2.5926 99.118 2.74693C99.0536 2.90126 98.9582 3.04076 98.8378 3.15683C98.7205 3.27819 98.5796 3.37425 98.4238 3.43907C98.268 3.5039 98.1006 3.53613 97.9318 3.53377C97.7651 3.53526 97.5998 3.50258 97.4462 3.43775C97.2926 3.37292 97.154 3.27732 97.0387 3.15683C96.9183 3.04076 96.8229 2.90126 96.7585 2.74693C96.694 2.5926 96.6618 2.4267 96.6639 2.25946C96.6612 2.09022 96.693 1.92221 96.7575 1.76571C96.8219 1.6092 96.9176 1.46748 97.0387 1.34923C97.154 1.22874 97.2926 1.13314 97.4462 1.06831C97.5998 1.00348 97.7651 0.970804 97.9318 0.972289ZM97.1629 5.93891H98.7135V17.9903H97.1629V5.93891Z" fill="black"/>
<path d="M100.797 5.93896H102.451L106.499 14.7307L110.497 5.94967H112.161L106.64 17.9904H106.353L100.797 5.93896Z" fill="black"/>
<path d="M124.675 13.998L125.984 14.6855C125.614 15.4481 125.11 16.1385 124.498 16.7244C123.946 17.2349 123.302 17.6355 122.6 17.9045C121.836 18.1849 121.028 18.3221 120.214 18.3093C118.247 18.3093 116.708 17.6667 115.599 16.3817C114.521 15.1752 113.929 13.6113 113.939 11.9934C113.923 10.5081 114.421 9.0631 115.348 7.90269C116.539 6.38208 118.132 5.62106 120.129 5.61963C122.187 5.61963 123.829 6.39921 125.054 7.95838C125.928 9.05921 126.372 10.4342 126.387 12.0833H115.53C115.56 13.484 116.008 14.6319 116.873 15.5272C117.285 15.9639 117.783 16.3092 118.337 16.5409C118.89 16.7726 119.486 16.8855 120.086 16.8722C120.698 16.8723 121.305 16.7635 121.878 16.5509C122.42 16.3587 122.922 16.0683 123.358 15.6942C123.879 15.1976 124.323 14.6259 124.675 13.998ZM124.675 10.749C124.519 10.0309 124.211 9.35467 123.772 8.7658C123.348 8.24967 122.81 7.83969 122.2 7.56858C121.558 7.26845 120.858 7.11343 120.15 7.11454C119.024 7.09277 117.933 7.50101 117.098 8.25607C116.474 8.81149 116.004 9.64247 115.689 10.749H124.675Z" fill="black"/>
<path d="M128.689 5.9387H130.274V7.70989C130.667 7.09795 131.176 6.56898 131.773 6.15287C132.256 5.82117 132.827 5.64144 133.414 5.63672C133.899 5.65312 134.372 5.79478 134.786 6.04793L133.979 7.35437C133.722 7.2301 133.443 7.15734 133.159 7.1402C132.596 7.15816 132.061 7.38758 131.659 7.78271C131.18 8.21105 130.813 8.8707 130.561 9.76165C130.371 10.4499 130.275 11.8391 130.274 13.9294V17.9901H128.689V5.9387Z" fill="black"/>
<path d="M142.167 7.25803L141.171 8.28819C140.34 7.48291 139.528 7.08027 138.736 7.08027C138.259 7.07355 137.798 7.25249 137.451 7.57928C137.282 7.72331 137.147 7.90193 137.054 8.10298C136.961 8.30404 136.912 8.5228 136.911 8.74437C136.919 9.15836 137.076 9.5555 137.354 9.86235C137.653 10.2264 138.275 10.6548 139.222 11.1474C140.377 11.7442 141.162 12.3203 141.578 12.8757C141.982 13.4242 142.197 14.0896 142.19 14.7711C142.197 15.239 142.107 15.7031 141.926 16.1346C141.745 16.5661 141.477 16.9557 141.139 17.2791C140.796 17.6184 140.388 17.8847 139.94 18.0617C139.492 18.2388 139.012 18.323 138.53 18.3092C137.84 18.3114 137.159 18.1561 136.538 17.8552C135.923 17.5674 135.384 17.1381 134.966 16.6023L135.943 15.495C136.735 16.3874 137.576 16.8343 138.464 16.8358C139.051 16.8495 139.621 16.6345 140.053 16.2361C140.258 16.0634 140.423 15.848 140.537 15.605C140.65 15.362 140.71 15.0972 140.71 14.829C140.715 14.3948 140.563 13.9736 140.282 13.6425C139.996 13.3041 139.345 12.8757 138.327 12.3574C137.239 11.7963 136.498 11.2423 136.106 10.6955C135.713 10.1504 135.506 9.49321 135.517 8.82148C135.505 8.39653 135.582 7.97386 135.744 7.58065C135.906 7.18745 136.148 6.83242 136.455 6.53841C136.769 6.23617 137.141 5.99992 137.548 5.8436C137.955 5.68727 138.39 5.61403 138.826 5.62819C139.928 5.62819 141.042 6.17147 142.167 7.25803Z" fill="black"/>
<path d="M156.934 5.93901V17.9904H155.402V15.9279C154.809 16.6724 154.062 17.2807 153.214 17.712C152.058 18.2642 150.758 18.4397 149.497 18.2138C148.237 17.9879 147.079 17.3719 146.187 16.4527C145.597 15.8601 145.132 15.1548 144.82 14.3788C144.508 13.6028 144.356 12.7719 144.373 11.9358C144.36 11.1081 144.515 10.2864 144.83 9.52064C145.144 8.75487 145.611 8.06096 146.202 7.48105C146.768 6.88574 147.451 6.41389 148.209 6.0951C148.966 5.7763 149.781 5.61744 150.603 5.62847C151.537 5.61566 152.46 5.83262 153.291 6.26027C154.133 6.71794 154.857 7.36719 155.402 8.15568V5.93901H156.934ZM150.723 7.12552C149.879 7.11871 149.049 7.34049 148.321 7.76734C147.593 8.19418 146.994 8.81017 146.587 9.54994C146.161 10.291 145.936 11.1311 145.936 11.9861C145.936 12.8412 146.161 13.6813 146.587 14.4223C146.999 15.1726 147.606 15.7978 148.343 16.2321C149.056 16.6555 149.87 16.8775 150.699 16.8746C151.546 16.875 152.378 16.6534 153.113 16.2321C153.848 15.8274 154.456 15.225 154.867 14.493C155.283 13.7373 155.495 12.8862 155.482 12.0236C155.499 11.3778 155.386 10.7352 155.149 10.1342C154.912 9.53319 154.556 8.98626 154.102 8.5262C153.667 8.07322 153.143 7.71499 152.563 7.47397C151.983 7.23294 151.359 7.11432 150.731 7.12552H150.723Z" fill="black"/>
<path d="M160.2 1.28516H161.753V17.9905H160.2V1.28516Z" fill="black"/>
<path d="M22.3851 1.60622C20.7339 -0.0471831 18.1039 -0.428407 14.9598 0.486103C13.9915 0.232072 12.9947 0.102525 11.9936 0.100595C10.1763 0.0920191 8.38136 0.501842 6.74787 1.29833C5.11438 2.09481 3.68614 3.25659 2.57373 4.69368C1.46133 6.13078 0.694626 7.80463 0.332992 9.58561C-0.0286416 11.3666 0.0245001 13.2069 0.488302 14.9641C-0.42835 18.106 -0.042842 20.7381 1.60842 22.3894C2.67927 23.4602 4.15491 23.9999 5.91968 23.9999C6.97761 23.9827 8.02794 23.8176 9.04015 23.5095C10.0049 23.7597 10.9969 23.8892 11.9936 23.895C13.8109 23.9036 15.6058 23.4937 17.2393 22.6973C18.8728 21.9008 20.301 20.739 21.4134 19.3019C22.5258 17.8648 23.2925 16.191 23.6541 14.41C24.0158 12.629 23.9626 10.7887 23.4988 9.03153C24.4219 5.8875 24.03 3.24891 22.3851 1.60622ZM2.59574 21.3956C1.70051 20.5004 1.31072 19.1147 1.44136 17.4549C2.57304 19.6378 4.35193 21.4174 6.53435 22.55C4.87024 22.6764 3.49098 22.2909 2.59574 21.3956ZM8.99089 22.0381C7.24998 21.5171 5.6742 20.5529 4.41783 19.24C3.16145 17.927 2.26753 16.3104 1.82358 14.5482C1.37964 12.786 1.40087 10.9388 1.88521 9.18733C2.36956 7.43585 3.30041 5.84016 4.58664 4.55646C5.87287 3.27276 7.47039 2.34505 9.22282 1.86416C10.9753 1.38326 12.8225 1.36566 14.5838 1.81308C16.3451 2.2605 17.96 3.15759 19.2704 4.41655C20.5809 5.67551 21.542 7.25318 22.0596 8.99512C21.2029 11.6744 19.4039 14.4886 16.9409 16.9516C14.478 19.4145 11.6723 21.2029 8.99517 22.0467L8.99089 22.0381ZM11.9936 22.4879C11.8886 22.4879 11.7794 22.4729 11.6787 22.4729C14.0001 21.3147 16.1139 19.7805 17.9347 17.9325C19.7861 16.1141 21.3245 14.0026 22.4879 11.683C22.4879 11.7879 22.5008 11.8971 22.5008 11.9978C22.4968 14.7799 21.3899 17.4468 19.4227 19.4141C17.4555 21.3813 14.7885 22.4882 12.0064 22.4922L11.9936 22.4879ZM22.5543 6.53215C21.4169 4.35275 19.6386 2.57447 17.4592 1.43702C19.1169 1.31066 20.5026 1.69617 21.4 2.5914C22.2973 3.48664 22.6721 4.87232 22.5543 6.53215Z" fill="black"/>
</svg>
